<?xml version="1.0" encoding="UTF-8" standalone="no"?>
<!-- Created with Inkscape (http://www.inkscape.org/) -->

<svg
   width="210mm"
   height="297mm"
   viewBox="0 0 210 297"
   version="1.1"
   id="svg1"
   xml:space="preserve"
   inkscape:version="1.3 (0e150ed6c4, 2023-07-21)"
   sodipodi:docname="dibujo.svg"
   xmlns:inkscape="http://www.inkscape.org/namespaces/inkscape"
   xmlns:sodipodi="http://sodipodi.sourceforge.net/DTD/sodipodi-0.dtd"
   xmlns="http://www.w3.org/2000/svg"
   xmlns:svg="http://www.w3.org/2000/svg"><sodipodi:namedview
     id="namedview1"
     pagecolor="#ffffff"
     bordercolor="#000000"
     borderopacity="0.25"
     inkscape:showpageshadow="2"
     inkscape:pageopacity="0.0"
     inkscape:pagecheckerboard="0"
     inkscape:deskcolor="#d1d1d1"
     inkscape:document-units="mm"
     inkscape:zoom="0.28551838"
     inkscape:cx="-10.507205"
     inkscape:cy="705.7339"
     inkscape:window-width="1600"
     inkscape:window-height="837"
     inkscape:window-x="-8"
     inkscape:window-y="288"
     inkscape:window-maximized="1"
     inkscape:current-layer="layer1" /><defs
     id="defs1" /><g
     inkscape:label="Capa 1"
     inkscape:groupmode="layer"
     id="layer1"><g
       id="g4"
       transform="matrix(3.0949731,0,0,2.3800448,-222.39131,-152.95273)"><path
         style="fill:#029cdd"
         d="m 33.534234,233.54929 c -0.338145,-0.10038 -0.829329,-0.65999 -1.091521,-1.24357 -0.632126,-1.40698 -8.577712,-28.84575 -8.577712,-29.62171 0,-0.42426 0.358314,-0.60406 1.203773,-0.60406 h 1.203773 l 1.084587,3.86879 c 5.226588,18.64355 7.072898,24.73801 7.386291,24.38129 0.284744,-0.3241 5.444777,-18.437 7.454465,-26.16689 0.509939,-1.96138 0.608111,-2.08319 1.67891,-2.08319 0.625516,0 1.219501,0.0936 1.319967,0.20791 0.100466,0.11436 -1.031398,4.5337 -2.515254,9.82077 -1.483856,5.28707 -3.353812,11.98997 -4.155459,14.89532 -0.801647,2.90536 -1.761452,5.62839 -2.1329,6.05118 -0.646385,0.73574 -1.530372,0.88853 -2.85892,0.49416 z m 15.187772,-0.77484 c -1.871294,-0.7545 -4.161126,-3.28246 -5.053748,-5.57931 -0.95075,-2.44642 -0.964163,-6.49055 -0.0294,-8.86376 0.931062,-2.3638 3.329848,-4.96824 5.2684,-5.72008 1.899521,-0.73669 4.515773,-0.78675 6.466641,-0.12371 1.529548,0.51983 5.273083,4.26208 5.044468,5.04273 -0.07081,0.24179 -2.715996,2.30797 -5.878193,4.59151 l -5.749448,4.15188 -0.602319,-0.88731 c -0.331275,-0.48803 -0.605807,-1.0013 -0.61007,-1.1406 -0.0043,-0.13931 2.127138,-1.82019 4.736448,-3.73531 l 4.7442,-3.48202 -0.82232,-0.72045 c -1.286574,-1.12719 -3.018681,-1.63909 -4.863424,-1.43734 -6.928927,0.75781 -8.144668,12.06652 -1.630273,15.16464 4.071053,1.93612 8.668595,-0.91477 9.235659,-5.72694 0.188917,-1.60317 0.218258,-1.63382 1.45177,-1.51637 1.239359,0.11801 1.257299,0.14458 1.152553,1.70707 -0.238946,3.56433 -2.74282,7.07796 -5.922739,8.31123 -1.965001,0.7621 -4.998023,0.74642 -6.938206,-0.0359 z m 21.303189,0.25745 c -0.975642,-0.16289 -2.167246,-0.58951 -2.64801,-0.94806 -1.75184,-1.30652 -1.845257,-1.98483 -1.959892,-14.23114 l -0.106787,-11.40797 h 1.239775 1.239775 v 2.976 2.97599 h 3.137504 3.137503 v 1.38879 1.3888 H 70.92756 67.790056 v 5.89277 c 0,6.12773 0.321324,8.13508 1.408196,8.79716 0.3507,0.21363 1.589201,0.38842 2.752224,0.38842 h 2.114587 v 1.58719 c 0,1.53631 -0.03633,1.58561 -1.132987,1.5377 -0.623143,-0.0272 -1.93124,-0.18277 -2.906881,-0.34565 z m -0.14347,-40.22274 -2.265975,-0.36595 3.486115,-0.68923 c 4.421768,-0.8742 6.873755,-1.943 10.11038,-4.40701 3.82701,-2.91348 7.696562,-8.25607 9.502054,-13.11925 0.804377,-2.16662 0.930989,-3.06538 0.94243,-6.68984 0.0128,-4.0554 -0.02804,-4.28197 -1.299613,-7.21047 -1.547995,-3.5651 -4.072553,-6.40617 -6.301959,-7.09206 -3.291646,-1.01269 -8.512769,0.95578 -11.641507,4.38908 -2.794843,3.0669 -3.170524,5.36459 -1.078468,6.59597 1.446273,0.85128 2.983921,0.53406 4.843499,-0.99921 2.075358,-1.71119 4.668049,-2.55403 5.866006,-1.90693 2.245739,1.21306 2.892436,6.72793 1.233331,10.51753 -1.156475,2.64153 -3.897198,5.47232 -7.345222,7.5866 -3.290614,2.01776 -1.866516,1.88404 1.854611,-0.17414 4.851409,-2.68335 7.535759,-6.98035 7.535759,-12.06294 0,-3.35783 -0.565202,-5.27964 -1.939965,-6.59633 -1.696153,-1.62449 -3.848451,-1.09039 -9.061718,2.2487 -1.232354,0.78932 -1.365138,0.80116 -2.178822,0.19432 -1.286522,-0.95948 -1.064632,-2.02738 0.881522,-4.24254 3.475305,-3.95569 8.841886,-5.46483 12.19645,-3.42979 4.533789,2.75042 6.681037,10.96891 4.587796,17.55957 -1.737026,5.4691 -7.119939,12.21623 -12.092485,15.15713 -1.539138,0.91029 -3.970704,2.02672 -5.403479,2.48095 -3.018849,0.95705 -10.571876,1.79477 -12.781531,1.41761 -3.426956,-0.58494 -4.345253,-3.49415 -2.878305,-9.11861 0.785069,-3.01005 0.788188,-3.1038 0.223885,-6.72882 -0.422705,-2.7154 -0.490272,-4.24975 -0.258517,-5.87053 0.380923,-2.664 1.037302,-5.52823 1.390407,-6.0673 0.142952,-0.21824 1.006718,-2.45023 1.91948,-4.95998 2.006577,-5.51734 5.242839,-12.80946 7.15439,-16.12067 1.943057,-3.36578 5.649392,-7.23045 8.380303,-8.73832 1.244599,-0.6872 5.214731,-2.36204 8.822514,-3.72187 5.569017,-2.09905 6.753531,-2.68716 7.84376,-3.8944 3.031973,-3.35738 4.010295,-3.95756 8.118939,-4.98078 0.69605,-0.17335 1.11912,-0.76116 1.80988,-2.51463 0.49581,-1.25862 1.07138,-3.15283 1.27903,-4.20936 1.07203,-5.45456 3.35743,-8.14689 8.68726,-10.23409 1.43678,-0.56265 2.53495,-1.43691 4.42441,-3.52225 1.3823,-1.525615 2.75473,-2.773842 3.04985,-2.773842 0.66217,0 1.05967,1.298494 0.74402,2.430482 -0.28528,1.02306 -0.0694,0.89911 2.69361,-1.546831 1.0904,-0.965254 2.13442,-1.648162 2.32006,-1.517574 0.19142,0.134655 0.25687,1.249847 0.1512,2.576275 -0.29634,3.71984 0.12555,5.83144 1.51482,7.58176 1.40357,1.76833 1.90933,3.41979 1.63551,5.34043 -0.29441,2.06501 0.11389,3.23502 1.45919,4.18139 1.46513,1.03066 1.5616,2.11929 0.42198,4.76199 -0.51542,1.19522 -1.34632,2.2243 -2.51306,3.11247 -1.56482,1.19119 -1.91309,1.30127 -3.40582,1.07649 l -1.66276,-0.25037 -0.70963,1.88433 c -0.39029,1.03639 -1.46104,2.78867 -2.37944,3.89397 -2.24811,2.70561 -2.42559,3.168 -2.80091,7.29716 -0.37314,4.10522 -0.48332,4.40267 -3.07252,8.29511 -1.42738,2.14583 -2.30752,4.06707 -3.41795,7.46096 -0.82254,2.51401 -1.67514,4.81726 -1.89467,5.11834 -0.21952,0.30107 -0.41716,1.13979 -0.43918,1.86381 -0.0551,1.81047 1.42288,16.0479 1.85705,17.88933 0.65036,2.75832 3.26945,5.31743 6.172,6.03066 1.61129,0.39593 2.36948,1.83071 1.96122,3.71139 -0.44429,2.04675 -2.05281,2.96462 -4.75669,2.71433 -2.41247,-0.22331 -4.46818,-1.77301 -7.35523,-5.54476 -2.22392,-2.90541 -2.51122,-3.48933 -2.8452,-5.78274 -0.13948,-0.95773 -0.85282,-2.7966 -1.58521,-4.08638 -0.73239,-1.28978 -1.735445,-3.54795 -2.229017,-5.01815 -1.643896,-4.89668 -2.696508,-5.69135 -3.38948,-2.55891 -0.331658,1.4992 -0.888035,2.39871 -2.793911,4.51699 -1.308882,1.45476 -2.379785,2.84385 -2.379785,3.08686 0,0.24302 -0.551234,1.13634 -1.224966,1.98516 -0.673732,0.84882 -1.689467,2.59029 -2.257191,3.86993 l -1.032224,2.32662 3.346578,0.48285 c 4.108259,0.59273 5.004448,1.166 4.997391,3.19669 -0.0077,2.20901 -0.670201,3.38318 -2.089336,3.70287 -1.960307,0.4416 -20.178263,0.61105 -22.656944,0.21075 z"
         id="path6" /><path
         style="fill:#d9007e"
         d="m 99.513706,232.60229 c -1.926472,-0.99143 -3.654394,-2.82683 -4.640191,-4.92882 -0.578428,-1.23337 -0.746476,-2.29485 -0.753828,-4.76159 -0.01095,-3.67339 0.59514,-5.44975 2.662179,-7.80251 2.128068,-2.42222 3.215534,-2.90375 6.566564,-2.90762 2.60274,-0.003 3.16017,0.12836 4.58236,1.07998 1.87988,1.25786 3.28136,3.0236 4.17918,5.26537 0.5306,1.32487 0.63693,2.65289 0.64332,8.03517 l 0.008,6.44798 h -1.22014 -1.22014 v -5.50529 c 0,-6.25819 -0.40788,-8.17581 -2.19365,-10.3133 -3.95695,-4.7363 -10.724973,-2.09179 -11.597594,4.53161 -0.425886,3.23258 1.256117,6.82423 3.815354,8.14707 2.73958,1.41606 5.73784,0.83577 7.97138,-1.54281 l 0.95868,-1.02094 v 2.02274 2.02274 l -1.81151,1.02749 c -2.32896,1.32099 -5.6139,1.40476 -7.949614,0.20273 z m 31.533034,0.31828 c -2.76165,-1.26238 -4.77305,-3.50173 -5.7163,-6.36413 -0.62345,-1.89196 -0.43576,-6.21326 0.35651,-8.20774 2.6496,-6.6702 10.43753,-8.52399 14.93575,-3.55521 2.66736,2.9464 2.96834,4.07034 3.10376,11.59038 l 0.11968,6.64638 h -1.24952 -1.24953 v -5.08636 c 0,-5.88291 -0.48152,-8.25086 -2.14273,-10.53729 -1.85947,-2.55929 -4.76177,-3.33513 -7.53768,-2.01496 -4.67157,2.22171 -5.71551,9.34969 -1.95488,13.34778 2.53827,2.69856 6.4948,2.595 9.45647,-0.2475 l 1.13299,-1.0874 v 1.81589 c 0,1.70179 -0.0931,1.884 -1.4816,2.89979 -1.22539,0.89645 -1.93374,1.10136 -4.09619,1.18489 -1.46925,0.0568 -3.07987,-0.11168 -3.67673,-0.38452 z m 38.12842,-0.0491 c -5.07942,-2.06481 -7.49837,-9.32724 -5.02404,-15.08365 2.88584,-6.71376 11.06193,-7.83646 15.36811,-2.11028 0.67153,0.89298 1.21907,1.72538 1.21675,1.84977 -0.002,0.1244 -2.77376,2.23412 -6.15877,4.68826 l -6.15456,4.46209 -0.59152,-1.0893 -0.59152,-1.08929 4.79808,-3.57119 c 2.63894,-1.96416 4.83331,-3.74719 4.87637,-3.9623 0.14823,-0.74042 -2.84707,-2.18841 -4.50822,-2.17937 -5.97701,0.0325 -8.99837,7.77716 -5.0713,12.99922 0.64968,0.86392 1.71996,1.86175 2.37841,2.21739 2.34708,1.26771 5.85354,0.61844 7.52212,-1.39284 1.0813,-1.30338 2.11068,-3.6876 2.11068,-4.8887 0,-0.88725 0.14596,-1.00781 1.22014,-1.00781 1.16415,0 1.22014,0.0643 1.22014,1.40154 0,3.23641 -1.9104,6.36963 -4.93138,8.08789 -2.41206,1.37193 -5.32532,1.62556 -7.67949,0.66857 z m -91.623706,-11.44759 2.75e-4,-11.60637 1.021469,-2.45764 c 1.235272,-2.97204 3.068348,-4.64015 5.811281,-5.28829 3.165067,-0.74789 6.250017,0.29917 8.400787,2.85129 1.562518,1.85411 2.19649,3.84037 2.19649,6.8817 0,3.15705 -0.757799,5.06841 -2.79727,7.05542 -1.771779,1.72621 -3.592742,2.26629 -7.641143,2.26629 h -3.157437 v -1.3888 -1.38879 l 3.398962,-0.007 c 2.864708,-0.006 3.618144,-0.14609 4.793409,-0.89443 1.626426,-1.03562 2.963198,-3.67227 2.963198,-5.84462 0,-1.92852 -1.322763,-4.76761 -2.709859,-5.81626 -2.408191,-1.82061 -5.78185,-1.51956 -7.722295,0.68911 -1.863757,2.12137 -2.117861,4.03061 -2.117861,15.91273 v 10.64155 h -1.220141 -1.22014 z m 40.090056,-3.67039 v -15.27675 h 1.22014 1.22014 v 15.27675 15.27675 h -1.22014 -1.22014 z m 34.68431,14.34375 c -1.92648,-1.02111 -3.80459,-3.20594 -4.63069,-5.38692 -0.30074,-0.79398 -0.53697,-2.55234 -0.53697,-3.99685 0,-2.96134 0.5849,-4.78052 2.21753,-6.89701 1.78705,-2.31667 3.51873,-3.13744 7.04885,-3.34097 l 3.05035,-0.17586 v 1.43734 1.43733 h -2.27717 c -2.83158,0 -4.16244,0.6171 -5.80835,2.69325 -2.92614,3.69105 -1.93439,9.6211 1.94435,11.62598 0.939,0.48536 2.24817,0.7447 3.78804,0.7504 l 2.35313,0.009 v 1.38879 1.3888 l -2.70174,-0.004 c -2.09333,-0.003 -3.09483,-0.21223 -4.44733,-0.92912 z M 96.661823,189.07291 c 0.132261,-3.67015 -0.145974,-4.11116 -3.30593,-5.24006 l -2.034558,-0.72685 3.224657,-0.0362 c 1.773561,-0.0199 3.22407,-0.17011 3.223353,-0.33379 -7.17e-4,-0.16368 -0.334229,-0.91922 -0.741138,-1.67898 -0.406909,-0.75976 -0.958199,-2.08584 -1.225089,-2.94685 -0.462315,-1.49146 -0.444703,-1.61374 0.372536,-2.58661 0.471785,-0.56162 0.99478,-1.44404 1.16221,-1.96093 0.27714,-0.85558 0.374169,-0.73114 1.082811,1.38879 0.428115,1.28073 1.162936,2.99437 1.632935,3.80809 0.4946,0.85631 0.85454,2.06158 0.85454,2.86146 0,1.02222 0.50836,2.23812 1.95288,4.67089 1.07408,1.8089 2.43829,3.86924 3.03158,4.57851 l 1.07871,1.2896 -5.21041,9.3e-4 -5.210402,9.3e-4 z m 23.332807,2.6405 c 0.23967,-0.27816 0.43577,-1.42803 0.43577,-2.55527 0,-2.73622 -0.81749,-3.90384 -3.18601,-4.55058 -1.99624,-0.54509 -4.1712,-2.48636 -4.76903,-4.25663 -0.20189,-0.5978 -0.53801,-2.96178 -0.74694,-5.2533 -0.20893,-2.29151 -0.62301,-6.15446 -0.92018,-8.58434 l -0.5403,-4.41796 0.85088,-1.93082 c 0.46798,-1.06195 1.3643,-3.52839 1.99181,-5.48098 0.74473,-2.31731 1.7139,-4.38422 2.79087,-5.95198 2.46456,-3.58767 3.16695,-5.43734 3.46148,-9.1154 0.28411,-3.54794 0.53466,-4.28172 2.00588,-5.87464 l 0.99846,-1.08106 3.03164,4.10718 c 8.15554,11.04887 14.73026,23.82895 17.14492,33.32663 l 0.59426,2.33741 1.50428,-1.68041 c 2.94854,-3.29377 4.45284,-8.59201 4.51166,-15.89036 0.0325,-4.03253 -0.0773,-4.94121 -0.94384,-7.81387 -1.92066,-6.36693 -5.53472,-11.02838 -10.85441,-14.00013 -3.2916,-1.8388 -4.38773,-3.26247 -3.67651,-4.7751 1.19879,-2.54958 9.4019,1.7883 13.83554,7.31636 3.48439,4.34449 5.63754,9.17737 6.57599,14.7602 1.25016,7.43715 -0.0162,18.48961 -2.87227,25.06888 -1.24001,2.85647 -4.13824,6.7463 -6.01328,8.07068 l -0.84805,0.59899 0.9352,1.3956 c 1.7612,2.62822 0.97675,4.79011 -2.15549,5.94041 -1.90905,0.70108 -23.73213,0.97502 -23.14233,0.29049 z"
         id="path5" /><path
         style="fill:#6eb022"
         d="m 177.60269,209.94633 c -4.55541,-1.47406 -4.71681,-8.53782 -0.25131,-10.99834 2.6865,-1.48028 4.17985,-0.92477 5.55655,2.06698 0.98683,2.1445 1.06446,5.93335 0.15333,7.48327 -1.01819,1.73204 -2.97598,2.25142 -5.45857,1.44809 z m 7.31054,-6.90991 c -0.67416,-2.3251 0.0673,-4.92446 1.40475,-4.92446 0.87782,0 1.4293,0.92315 1.64501,2.75366 0.38644,3.27943 -2.19544,5.11721 -3.04976,2.1708 z m -11.61008,-4.39539 c -0.74474,-0.84768 0.46766,-4.04615 1.85377,-4.89051 0.95864,-0.58397 1.97375,-0.18654 2.21593,0.86755 0.37148,1.61692 -1.44128,4.28749 -2.91033,4.28749 -0.50983,0 -1.03155,-0.11904 -1.15937,-0.26453 z m 9.17733,-1.12806 c -0.54963,-0.75382 -0.26736,-3.43582 0.50234,-4.77291 1.20935,-2.10083 2.87235,-0.59991 2.53234,2.28551 -0.30368,2.57706 -1.97215,3.94463 -3.03468,2.4874 z m -3.94816,-1.25274 c -0.48264,-0.54936 -0.20266,-3.15892 0.47458,-4.42328 0.56293,-1.05093 0.89521,-1.28999 1.6546,-1.19039 0.84221,0.11046 0.96214,0.31014 1.05509,1.75662 0.083,1.2919 -0.0869,1.8914 -0.81537,2.87679 -0.86641,1.172 -1.84476,1.57685 -2.3689,0.98026 z M 73.772001,129.98267 c -0.407226,-1.26637 -0.891306,-3.106 -1.075733,-4.08808 -0.476967,-2.53985 -1.40829,-14.78638 -1.56342,-20.55835 -0.07221,-2.68664 -0.200225,-4.96327 -0.284484,-5.05918 -0.08426,-0.0959 -1.031201,0.0263 -2.104314,0.27163 -2.772347,0.63373 -5.028135,0.16776 -6.220326,-1.284891 -0.554017,-0.675056 -1.049468,-0.994212 -1.177461,-0.758488 -0.326252,0.600853 -1.574273,0.494677 -1.574273,-0.133933 0,-0.558528 2.523118,-3.391358 4.348668,-4.882466 l 1.036858,-0.846905 -1.559775,-0.471534 c -1.969358,-0.595354 -3.003791,-1.662379 -4.042788,-4.170161 -1.284682,-3.100784 -0.988713,-4.563186 0.923523,-4.563186 1.615491,0 8.503707,-2.402329 9.288066,-3.239298 0.41599,-0.443893 0.945369,-1.326499 1.176397,-1.961346 0.285212,-0.78374 1.085494,-1.557971 2.493038,-2.411883 3.730377,-2.263101 6.112856,-6.333546 7.195604,-12.293629 0.445077,-2.449966 0.693768,-3.10817 1.174369,-3.10817 0.761522,0 1.363555,1.052192 2.554157,4.463985 0.514068,1.473116 1.035643,2.673476 1.159056,2.667468 0.123413,-0.006 0.616575,-0.62605 1.095916,-1.377872 1.545059,-2.423347 2.323399,-1.689192 3.32279,3.134165 0.275897,1.33156 0.50395,3.011004 0.506784,3.732099 0.0039,1.001052 0.690399,2.408507 2.90299,5.951981 5.171434,8.282076 8.146847,14.71995 8.930317,19.322453 0.49914,2.932181 1.2627,5.584751 2.03833,7.081051 0.67637,1.30482 0.6767,1.33953 0.0219,2.28035 -1.10007,1.58067 -1.91616,3.60948 -2.37944,5.91535 -0.24116,1.20032 -0.74849,3.02022 -1.12741,4.04422 -0.55993,1.5132 -0.894683,1.91231 -1.787678,2.13142 -2.81699,0.69118 -4.96183,1.95632 -7.030817,4.14715 -1.183691,1.25339 -2.686338,2.49077 -3.339216,2.74972 -0.652878,0.25895 -3.853929,1.49736 -7.113447,2.75201 -3.259518,1.25466 -6.178713,2.41296 -6.487099,2.574 -0.445924,0.23286 -0.712266,-0.17852 -1.301112,-2.00968 z"
         id="path4" /></g></g></svg>
